<?xml version="1.0" encoding="UTF-8"?>
<svg width="143px" height="51px" viewBox="0 0 143 51" version="1.1" xmlns="http://www.w3.org/2000/svg" xmlns:xlink="http://www.w3.org/1999/xlink">
    <!-- Generator: Sketch 48.2 (47327) - http://www.bohemiancoding.com/sketch -->
    <title>logo</title>
    <desc>Created with Sketch.</desc>
    <defs></defs>
    <g id="Desktop-HD-Copy-17" stroke="none" stroke-width="1" fill="none" fill-rule="evenodd" transform="translate(-649.000000, -70.000000)">
        <g id="logo" transform="translate(638.000000, 64.000000)">
            <rect id="bounding-box" x="0" y="0" width="165" height="64"></rect>
            <path d="M58.53,56.26 L49.57,56.26 L49.57,35.89 C49.57,29.8 46.49,28.54 44.46,28.54 C42.5,28.54 40.05,29.73 39.21,34.98 L39.21,56.26 L30.25,56.26 L30.25,35.89 C30.25,29.8 27.17,28.54 25.14,28.54 C23.18,28.54 20.73,29.73 19.96,34.98 L19.96,56.26 L11,56.26 L11,20.3499963 L19.54,20.3499963 C22.8066667,20.3499963 25.28,20.3499963 26.96,20.3499963 C30.04,20.3499963 33.19,21.47 35.57,24.27 C38.86,21.47 42.36,20.35 45.58,20.35 C51.53,20.35 58.53,24.2 58.53,35.33 L58.53,56.26 Z M77.14,56.26 L54.53,56.26 L54.53,48.35 L61.32,48.35 L61.32,28.68 L54.53,28.68 L54.53,20.77 L70.28,20.77 L70.28,48.35 L77.14,48.35 L77.14,56.26 Z M65.8,17.34 C62.65,17.34 60.13,14.82 60.13,11.67 C60.13,8.52 62.65,6 65.8,6 C68.95,6 71.47,8.52 71.47,11.67 C71.47,14.82 68.95,17.34 65.8,17.34 Z M102.37,56.26 L93.83,56.26 L93.69,53.81 C91.73,55.77 88.65,56.68 85.92,56.68 C80.32,56.68 73.18,52.83 73.18,41.7 L73.18,20.35 L82.14,20.35 L82.14,41.14 C82.14,47.3 84.87,48.49 87.11,48.49 C89.42,48.49 92.57,47.23 93.41,42.05 L93.41,20.77 L102.37,20.77 L102.37,56.26 Z M125.53,30.57 L117.69,32.6 C116.43,29.73 114.89,28.54 112.79,28.54 C110.83,28.54 109.22,29.52 109.22,30.85 C109.22,32.11 110.76,32.67 114.54,34 L116.85,34.84 C122.24,36.8 126.51,39.39 126.51,45.55 C126.51,52.97 120.14,56.68 112.58,56.68 C104.88,56.68 100.26,52.9 98.37,46.18 L106.21,44.15 C107.82,47.37 110.06,48.49 112.79,48.49 C115.24,48.49 117.27,47.58 117.27,45.76 C117.27,44.22 115.87,43.52 112.37,42.19 L109.78,41.21 C105.37,39.53 100.19,37.36 100.19,31.06 C100.19,24.62 105.65,20.35 112.79,20.35 C119.16,20.35 123.71,23.78 125.53,30.57 Z M153.998997,37.407907 L131.21998,41.56 C131.98998,47.37 135.27998,48.49 138.14998,48.49 C140.87998,48.49 143.53998,47.16 145.35998,44.15 L153.19998,46.18 C150.865588,55.4384659 141.995325,56.68 138.35998,56.68 C129.88998,56.68 121.97998,51.85 121.97998,38.62 C121.97998,25.18 130.09998,20.35 138.00998,20.35 C145.91998,20.35 150.096575,24.8478294 152.529153,30.3154814 C153.415286,32.3072223 153.905234,34.6713642 153.998997,37.407907 Z M131.450012,34.42 L143.598323,32.2028576 C142.211139,29.6991305 140.550012,28.54 138.030012,28.54 C135.440012,28.54 132.570012,29.73 131.450012,34.42 Z" id="miuse" fill="#70DEBD"></path>
        </g>
    </g>
</svg>